<svg xmlns="http://www.w3.org/2000/svg" viewBox="0 0 24 24" fill="#F38020">
  <path d="M16.5088 16.8447c.1475-.5068.0908-.9707-.1553-1.3154-.2246-.3164-.6045-.499-1.0615-.5205l-8.6592-.1123c-.0566 0-.1006-.0283-.127-.0713-.0283-.043-.0352-.0996-.0195-.1562.0293-.084.1133-.1484.2031-.1562l8.7432-.1123c1.0361-.0498 2.1602-.8867 2.5547-1.9121l.498-1.2988c.0215-.0557.0283-.1133.0146-.1699-.5654-2.5537-2.8506-4.459-5.5879-4.459-2.5225 0-4.666 1.6289-5.4375 3.8955-.498-.3721-1.1354-.5635-1.8213-.4971-1.2197.123-2.1963 1.0996-2.3174 2.3193-.0352.3164-.0107.623.0635.9082-1.9893.0566-3.5703 1.6807-3.5703 3.6846 0 .1807.0137.3584.0391.5322.0127.084.084.1484.1699.1484h15.75c.0928 0 .1797-.0645.2051-.1562l.2129-.749zm2.7285-5.5166c-.0781 0-.165.0019-.2451.0068-.0547 0-.1035.041-.123.0947l-.3398 1.1836c-.1465.5058-.0908.9707.1553 1.3154.2256.3164.6045.499 1.0615.5205l1.8447.1123c.0566 0 .1006.0283.127.0713.0283.043.0361.0996.0195.1562-.0293.084-.1123.1485-.2021.1562l-1.917.1123c-1.04.0498-2.1602.8867-2.5547 1.9121l-.1396.3653a.1145.1145 0 00.1035.167h6.5977c.0811 0 .1543-.041.2051-.168.0254-.1348.0508-.2812.0508-.4277 0-2.6172-2.1416-4.7481-4.7803-4.7481"/>
</svg>
